<?xml version="1.0" encoding="UTF-8"?>
<svg width="544" height="320" version="1.1" viewBox="0 0 143.93 84.667" xmlns="http://www.w3.org/2000/svg" xmlns:cc="http://creativecommons.org/ns#" xmlns:dc="http://purl.org/dc/elements/1.1/" xmlns:rdf="http://www.w3.org/1999/02/22-rdf-syntax-ns#">
 <metadata>
  <rdf:RDF>
   <cc:Work rdf:about="">
    <dc:format>image/svg+xml</dc:format>
    <dc:type rdf:resource="http://purl.org/dc/dcmitype/StillImage"/>
    <dc:title/>
   </cc:Work>
  </rdf:RDF>
 </metadata>
 <rect x="2.0514e-16" width="143.93" height="84.667"/>
 <g fill="#fff" stroke="#000" stroke-width=".42333">
  <rect x="25.612" y=".21167" width="8.0433" height="8.0433"/>
  <rect x="25.612" y="8.6783" width="8.0433" height="8.0433"/>
  <rect x="25.612" y="17.145" width="8.0433" height="8.0433"/>
  <rect x="25.612" y="25.612" width="8.0433" height="8.0433"/>
  <rect x="25.612" y="34.078" width="8.0433" height="8.0433"/>
  <rect x="25.612" y="42.545" width="8.0433" height="8.0433"/>
  <rect x="25.612" y="51.012" width="8.0433" height="8.0433"/>
  <rect x="25.612" y="59.478" width="8.0433" height="8.0433"/>
  <rect x="17.145" y="34.078" width="8.0433" height="8.0433"/>
  <rect x="8.6783" y="34.078" width="8.0433" height="8.0433"/>
  <rect x=".21167" y="34.078" width="8.0433" height="8.0433"/>
  <rect x="17.145" y="8.6783" width="8.0433" height="8.0433"/>
  <rect x="17.145" y="42.545" width="8.0433" height="8.0433"/>
  <rect x="17.145" y="51.012" width="8.0433" height="8.0433"/>
  <rect x="8.6783" y="51.012" width="8.0433" height="8.0433"/>
  <rect x="34.078" y="51.012" width="8.0433" height="8.0433"/>
  <rect x="34.078" y="59.478" width="8.0433" height="8.0433"/>
  <rect x="42.545" y="59.478" width="8.0433" height="8.0433"/>
  <rect x="42.545" y="67.945" width="8.0433" height="8.0433"/>
  <rect x="51.012" y="59.478" width="8.0433" height="8.0433"/>
  <rect x="59.478" y="59.478" width="8.0433" height="8.0433"/>
  <rect x="67.945" y="59.478" width="8.0433" height="8.0433"/>
  <rect x="76.412" y="59.478" width="8.0433" height="8.0433"/>
  <rect x="84.878" y="59.478" width="8.0433" height="8.0433"/>
  <rect x="93.345" y="59.478" width="8.0433" height="8.0433"/>
  <rect x="101.81" y="59.478" width="8.0433" height="8.0433"/>
  <rect x="110.28" y="59.478" width="8.0433" height="8.0433"/>
  <rect x="118.74" y="59.478" width="8.0433" height="8.0433"/>
  <rect x="127.21" y="59.478" width="8.0433" height="8.0433"/>
  <rect x="135.68" y="59.478" width="8.0433" height="8.0433"/>
  <rect x="42.545" y="76.412" width="8.0433" height="8.0433"/>
 </g>
 <g fill="none" stroke="#c20000" stroke-width="1.3229">
  <path d="m0 63.5h109.64"/>
  <path d="m33.443 37.835h110.49"/>
 </g>
 <rect x="42.201" y="30.03" width="20.373" height="20.373" stroke="#fff" stroke-width=".79375"/>
 <rect x="62.574" y="30.03" width="20.373" height="20.373" fill="#c20000" stroke="#fff" stroke-width=".79375"/>
 <g>
  <rect x="62.574" y="50.403" width="20.373" height="20.373" stroke="#fff" stroke-width=".79375"/>
  <rect x="82.947" y="50.403" width="20.373" height="20.373" stroke="#fff" stroke-width=".79375"/>
  <g>
   <g style="font-variant-caps:normal;font-variant-east-asian:normal;font-variant-ligatures:normal;font-variant-numeric:normal" aria-label="C">
    <path d="m58.341 42.858q-0.48782 1.91-1.7529 2.836-1.265 0.92604-3.3982 0.92604-3.1254 0-4.9444-1.7198-1.8107-1.7281-1.8107-4.6798 0-2.96 1.8107-4.6798 1.819-1.7281 4.9444-1.7281 1.0997 0 2.2903 0.26458 1.1906 0.26458 2.5218 0.80202v3.0344h-1.0501q-0.32246-1.5544-1.1741-2.3234-0.85162-0.77721-2.249-0.77721-1.8025 0-2.6789 1.3312-0.87643 1.3229-0.87643 4.0762 0 2.7533 0.87643 4.0762 0.87643 1.3229 2.6954 1.3229 1.232 0 2.0092-0.68626 0.78548-0.68626 1.141-2.0753z" fill="#fff" stroke-width=".26458" style="font-variant-caps:normal;font-variant-east-asian:normal;font-variant-ligatures:normal;font-variant-numeric:normal"/>
   </g>
   <g style="font-variant-caps:normal;font-variant-east-asian:normal;font-variant-ligatures:normal;font-variant-numeric:normal" aria-label="L">
    <path d="m67.39 46.389v-1.0005h1.5792v-10.344h-1.5792v-1.0005h6.35v1.0005h-1.5875v10.211h4.8617v-1.9513h1.1162v3.084z" stroke-width=".26458" style="font-variant-caps:normal;font-variant-east-asian:normal;font-variant-ligatures:normal;font-variant-numeric:normal"/>
   </g>
   <g style="font-variant-caps:normal;font-variant-east-asian:normal;font-variant-ligatures:normal;font-variant-numeric:normal" aria-label="U">
    <path d="m67.423 55.298h-1.571v-1.0005h6.35v1.0005h-1.5792v6.1764q0 2.3068 0.71934 3.2329 0.71933 0.91777 2.4639 0.91777 1.7033 0 2.4143-0.92604 0.71933-0.93431 0.71933-3.2246v-6.1764h-1.571v-1.0005h4.2995v1.0005h-1.5792v6.35q0 2.8277-1.2237 4.0349-1.2237 1.1989-4.1093 1.1989-2.8691 0-4.101-1.2154-1.232-1.2154-1.232-4.0349z" fill="#fff" stroke-width=".26458" style="font-variant-caps:normal;font-variant-east-asian:normal;font-variant-ligatures:normal;font-variant-numeric:normal"/>
   </g>
   <g style="font-variant-caps:normal;font-variant-east-asian:normal;font-variant-ligatures:normal;font-variant-numeric:normal" aria-label="E">
    <path d="m87.511 66.762v-1.0005h1.5792v-10.344h-1.5792v-1.0005h11.096v2.9104h-1.141v-1.7777h-5.1924v3.9605h3.2329v-1.571h1.1327v4.2664h-1.1327v-1.571h-3.2329v4.994h5.3495v-1.7777h1.1327v2.9104z" fill="#fff" stroke-width=".26458" style="font-variant-caps:normal;font-variant-east-asian:normal;font-variant-ligatures:normal;font-variant-numeric:normal"/>
   </g>
  </g>
 </g>
 <g transform="translate(-.26902 .98623)" stroke-width="0">
  <path d="m118.58 15.226c-0.12593 0.01752-0.46233 0.0263-0.65832 0.2035-0.19598 0.1772-0.18628 0.80033-0.18628 0.80033s0.0199 0.39056 0.0352 0.51903c0.0323 0.27106 0.44337 0.43038 0.50521 0.56662 0.0618 0.13624 0.14468 0.29098 0.14468 0.42045s-0.10462 0.6486-0.10462 0.6486l-0.15355 0.50317s-0.10909 0.29143-0.0723 0.39988c0.0369 0.10845 0.31787 0.05569 0.39131 0.1208 0.0734 0.06512 0.44542 0.567 0.50058 0.73268 0.0552 0.16568 0.1549 0.734 0.43273 0.9424s0.3792 0.12061 0.48156 0.06608c0.10237-0.05453 0.37713-0.14676 0.51419 0.0054 0.13706 0.1522 0.39492 0.70561 0.30773 1.0144-0.0872 0.30884-0.30462 1.0682-0.43658 1.2026-0.13195 0.1344-0.67089 1.3476-0.70798 1.4413-0.0371 0.09373-0.33873 1.1219-0.40966 1.401-0.0568 0.2234-0.71174 1.4616-0.91607 1.8558-0.1019 0.19658-0.24942 1.903-0.2508 2.1088-1e-3 0.20574 0.0744 0.94538 0.15982 1.0647 0.0854 0.11928-0.17965 1.9667-0.2708 2.5806-0.0911 0.61389-0.34823 1.3303-0.50037 2.8194-0.13524 1.3238 0.50891 4.7837 0.56106 5.2009 0.0521 0.41719 3e-3 0.7751 0.024 1.2329 0.0213 0.45779 0.12822 0.71246 0.1575 1.0757 0.0293 0.3632-0.18092 0.65434-0.0783 1.134s0.47068 1.7043 0.52974 2.0381c0.0591 0.33375-0.0711 1.317-0.0242 1.7223 0.0468 0.40524 0.32125 0.79896 0.35167 1.2092 0.0304 0.41024-0.11546 1.6276-0.11546 1.6276s-0.0661 0.53348-0.0464 0.81097c0.0197 0.27748-0.0102 1.2161-0.2111 1.6046-0.20095 0.38851-0.17135 0.86222-0.27505 0.99969-0.10371 0.13748-0.20444 0.73952-0.20444 0.73952s-0.0383 0.71267-0.14791 0.9805c-0.35058 0.34488-0.96271 0.47313-1.2998 0.75885-0.0454 0.03844-0.17652 0.34006-0.18512 0.40476 0.0398 0.22806 9.7793 0.08526 10.048 0.01318s1.2639-0.52877 1.2347-0.72304c-0.0353-0.23501-0.36152-0.70184-0.48741-0.9427-0.12588-0.24086-0.15098-1.7927-0.27574-2.132-0.12475-0.33934-0.60641-2.4891-0.66972-2.7319-0.0633-0.24284-0.60828-1.3741-0.71259-1.5234-0.10431-0.1493-1.1669-2.5296-1.2752-2.9048-0.10829-0.37518-0.27514-2.5064-0.29259-2.7745-0.0175-0.2681-0.11668-3.7279-0.13542-3.9782-0.0187-0.25032-0.0861-0.31314 0.0812-0.53856 0.16727-0.22542 1.587-0.34086 1.739-0.56289 0.15206-0.22204-0.066-1.4351-0.0365-1.6128 0.0295-0.17763 0.0796-1.4213 0.18277-1.649 0.10314-0.22765 1.3673-2.2485 1.4359-2.5539 0.0686-0.30533 0.28317-1.2535 0.21997-1.5019-0.0632-0.24848-0.30585-1.1734-0.47857-1.4239-0.17273-0.25053-0.5292-2.4255-0.54888-2.6194-0.0197-0.19389-0.5557-2.1653-0.53601-2.4411 0.0197-0.27582 0.0434-1.2345 0.0237-1.4544-0.0197-0.21989-0.70811-1.8841-1.2198-2.2706-0.5117-0.38649-0.91535-0.90818-0.91414-1.2137 1e-3 -0.30555 0.69123-0.91672 0.78648-1.1082 0.0953-0.19148 0.12334-0.37509 0.0121-0.47647-0.11123-0.10138-0.594-0.26496-0.66103-0.48117-0.067-0.2162-0.12347-0.68327 0.0224-0.91656 0.14585-0.23329 0.23436-0.40596 0.26389-0.71876 0.0295-0.3128-0.30898-0.45354-0.41672-0.69691s0.0627-0.54428 0.091-0.60178c0.0283-0.05751-0.0732-0.76438-0.15879-0.95849-0.0856-0.19411-0.99391-0.75087-1.2502-0.77992-0.25629-0.02905-0.51316 0.09983-0.77374 0.07378-0.26059-0.02604-0.80314-0.10972-0.98011-0.1119-0.18233-0.0022-0.73503 0.01-1.0291 0.25431-0.29408 0.24435-0.55542 0.98326-1.131 1.1045z" fill="#fff"/>
  <path d="m122.67 55.68c0.44365-0.16986 0.81215 0.94226 0.75699 1.1885-0.055 0.24628-1.3204 0.85747-1.5795 0.98912s-0.23629 0.12348-0.18114-0.06017c0.055-0.18366 0.75425-1.8779 1.0037-2.1175z"/>
 </g>
</svg>
